# xmcd
#
# Track frame offsets: 
#        150
#        12372
#        27946
#        57743
#        75787
#        98746
#        113757
#        131194
#        145949
#        163628
#        180860
#        208528
#
# Disc length: 2978 seconds
#
# Revision: 0
# Processed by: cddbd v1.5.2PL0 Copyright (c) Steve Scherf et al.
# Submitted via: ExactAudioCopy v0.99pb4
#
DISCID=960ba00c
DTITLE=Siódma w nocy - siodma w nocy
DYEAR=2009
DGENRE=Blues
TTITLE0=Hangower Blues
TTITLE1=Jak Mam Grac Bluesa
TTITLE2=Lezysz Calkiem Naga
TTITLE3=Album Pelen Zdjec
TTITLE4=Czekam Na Ciebie
TTITLE5=Blues Dla Ksiezniczki
TTITLE6=Wyspa
TTITLE7=I Have A Woman
TTITLE8=Pewnie Po Mnie Przyszli
TTITLE9=Kiedy Blues Mnie Opusci
TTITLE10=Juz Mnie Wiecej Nie Oszukasz
TTITLE11=Izba
EXTD=
EXTT0=
EXTT1=
EXTT2=
EXTT3=
EXTT4=
EXTT5=
EXTT6=
EXTT7=
EXTT8=
EXTT9=
EXTT10=
EXTT11=
PLAYORDER=
